<svg id="aa2ed208-92b3-4025-8eb4-423b57071b11" data-name="Calque 1" xmlns="http://www.w3.org/2000/svg" width="32" height="32" viewBox="0 0 32 32">
  <title>time-03-12B8BB33</title>
  <path d="M2.83,23.87H8.66v5.79H4.35v0h0a1.47,1.47,0,0,1-1.47-1.47V23.87m0-6.68H8.66v5.46H2.83Zm0-6.68H8.66V16H2.83Zm7,13.36h5.48v5.79H9.87Zm0-6.68h5.48v5.46H9.87Zm0-6.68h5.48V16H9.87Zm6.7,13.36h5.48v5.79H16.57Zm0-6.68h5.48v5.46H16.57Zm0-6.68h5.48V16H16.57Zm6.7,13.36h5.84v4.34a1.47,1.47,0,0,1-1.43,1.46H23.27Zm0-6.68h5.84v5.46H23.27Zm0-6.68h5.84V16H23.27ZM1,28.21A3.3,3.3,0,0,0,4.3,31.5H27.63a3.3,3.3,0,0,0,3.3-3.29V8.59H1Z" style="fill: #5b83b6"/>
  <path d="M11.48,1.91c0-1-.64-1.91-1.43-1.91S8.62.86,8.62,1.91V4.83c0,1.06.64,1.91,1.43,1.91s1.43-.85,1.43-1.91Z" style="fill: #5b83b6"/>
  <path d="M23.38,1.91C23.38.86,22.74,0,22,0s-1.43.86-1.43,1.91V4.83c0,1.06.64,1.91,1.43,1.91s1.43-.85,1.43-1.91Z" style="fill: #5b83b6"/>
  <path d="M28.76,2.87H24.34v2c0,1.58-.81,2.87-2.39,2.87s-2.38-1.29-2.38-2.87v-2H12.43v2c0,1.58-.81,2.87-2.38,2.87S7.66,6.41,7.66,4.83v-2H2.91A2.28,2.28,0,0,0,1,5.12V9.75H31V5.12A2.25,2.25,0,0,0,28.76,2.87Z" style="fill: #5b83b6"/>
</svg>
